<mxfile host="app.diagrams.net" agent="Mozilla/5.0 (X11; Linux x86_64) AppleWebKit/537.36 (KHTML, like Gecko) Chrome/139.0.0.0 Safari/537.36" version="28.2.7">
  <diagram name="Azure Landing Zone Full Architecture" id="0">
    <mxGraphModel dx="748" dy="518" grid="1" gridSize="10" guides="1" tooltips="1" connect="1" arrows="1" fold="1" page="1" pageScale="1" pageWidth="850" pageHeight="1100" math="0" shadow="0">
      <root>
        <mxCell id="0" />
        <mxCell id="1" parent="0" />
        <mxCell id="title" value="Azure Landing Zone — Full Architecture (Terraform + Azure DevOps + Entra ID)" style="rounded=1;fillColor=#dae8fc;strokeColor=#6c8ebf;fontStyle=1;sketch=1;curveFitting=1;jiggle=2;" parent="1" vertex="1">
          <mxGeometry x="20" y="10" width="900" height="40" as="geometry" />
        </mxCell>
        <mxCell id="billing" value="Billing Account&#xa;(Enterprise Agreement / MCA)" style="rounded=1;fillColor=#fff2cc;strokeColor=#d6b656;sketch=1;curveFitting=1;jiggle=2;" parent="1" vertex="1">
          <mxGeometry x="40" y="80" width="240" height="70" as="geometry" />
        </mxCell>
        <mxCell id="entra" value="Microsoft Entra ID Tenant&#xa;Users, Groups, Service Principals:&#xa;app-cicd-dev / app-cicd-qa / app-cicd-prod" style="rounded=1;fillColor=#e1d5e7;strokeColor=#9673a6;align=left;verticalAlign=top;spacing=6;sketch=1;curveFitting=1;jiggle=2;" parent="1" vertex="1">
          <mxGeometry x="320" y="80" width="400" height="100" as="geometry" />
        </mxCell>
        <mxCell id="platform_mg" value="MG: Platform&#xa;(Connectivity, Hub Infra)" style="rounded=1;fillColor=#f0f9ff;strokeColor=#0284c7;sketch=1;curveFitting=1;jiggle=2;" parent="1" vertex="1">
          <mxGeometry x="40" y="200" width="240" height="80" as="geometry" />
        </mxCell>
        <mxCell id="nonprod_mg" value="MG: Non-Production&#xa;(Dev, QA)" style="rounded=1;fillColor=#fefce8;strokeColor=#a16207;sketch=1;curveFitting=1;jiggle=2;" parent="1" vertex="1">
          <mxGeometry x="320" y="200" width="240" height="80" as="geometry" />
        </mxCell>
        <mxCell id="prod_mg" value="MG: Production&#xa;(Prod Env)" style="rounded=1;fillColor=#dcfce7;strokeColor=#16a34a;sketch=1;curveFitting=1;jiggle=2;" parent="1" vertex="1">
          <mxGeometry x="600" y="200" width="240" height="80" as="geometry" />
        </mxCell>
        <mxCell id="connectivity" value="Subscription: Connectivity&#xa;rg-platform-connectivity&#xa;Hub VNet: vnet-hub-weu&#xa;Azure Firewall, Bastion, DNS" style="rounded=1;dashed=1;fillColor=#dae8fc;strokeColor=#6c8ebf;align=left;verticalAlign=top;spacing=6;sketch=1;curveFitting=1;jiggle=2;" parent="1" vertex="1">
          <mxGeometry x="40" y="310" width="300" height="150" as="geometry" />
        </mxCell>
        <mxCell id="dev" value="Subscription: Dev Environment&#xa;rg-dev-user-a&#xa;vnet-dev-spoke (peered with hub)&#xa;UDR → Firewall" style="rounded=1;dashed=1;fillColor=#b1ddf0;strokeColor=#10739e;align=left;verticalAlign=top;spacing=6;sketch=1;curveFitting=1;jiggle=2;" parent="1" vertex="1">
          <mxGeometry x="360" y="310" width="220" height="150" as="geometry" />
        </mxCell>
        <mxCell id="qa" value="Subscription: QA Environment&#xa;rg-qa-app-services&#xa;vnet-qa-spoke (peered with hub)&#xa;UDR → Firewall" style="rounded=1;dashed=1;fillColor=#fad9d5;strokeColor=#ae4132;align=left;verticalAlign=top;spacing=6;sketch=1;curveFitting=1;jiggle=2;" parent="1" vertex="1">
          <mxGeometry x="600" y="310" width="220" height="150" as="geometry" />
        </mxCell>
        <mxCell id="prod" value="Subscription: Prod Environment&#xa;rg-prod-app-services&#xa;vnet-prod-spoke (peered with hub)&#xa;AKS: aks-prod-main | ACR: acr-prod-main | KV: kv-prod-secrets" style="rounded=1;dashed=1;fillColor=#b0e3e6;strokeColor=#0e8088;align=left;verticalAlign=top;spacing=6;sketch=1;curveFitting=1;jiggle=2;" parent="1" vertex="1">
          <mxGeometry x="840" y="310" width="350" height="170" as="geometry" />
        </mxCell>
        <mxCell id="peer1" value="VNet Peering" style="edgeStyle=orthogonalEdgeStyle;dashed=1;strokeColor=#000000;sketch=1;curveFitting=1;jiggle=2;" parent="1" source="connectivity" target="dev" edge="1">
          <mxGeometry relative="1" as="geometry" />
        </mxCell>
        <mxCell id="peer2" value="VNet Peering" style="edgeStyle=orthogonalEdgeStyle;dashed=1;strokeColor=#000000;sketch=1;curveFitting=1;jiggle=2;" parent="1" source="connectivity" target="qa" edge="1">
          <mxGeometry relative="1" as="geometry">
            <Array as="points">
              <mxPoint x="470" y="440" />
              <mxPoint x="470" y="385" />
            </Array>
          </mxGeometry>
        </mxCell>
        <mxCell id="peer3" value="VNet Peering" style="edgeStyle=orthogonalEdgeStyle;dashed=1;strokeColor=#000000;entryX=0;entryY=0.5;entryDx=0;entryDy=0;sketch=1;curveFitting=1;jiggle=2;" parent="1" target="prod" edge="1">
          <mxGeometry relative="1" as="geometry">
            <mxPoint x="290" y="400" as="sourcePoint" />
            <mxPoint x="600" y="400" as="targetPoint" />
          </mxGeometry>
        </mxCell>
        <mxCell id="cicd" value="Azure DevOps CI/CD Pipeline&#xa;Service Connections:&#xa;azrm-platform | azrm-nonprod | azrm-prod&#xa;Stages: platform_mg → connectivity → dev → qa → prod" style="rounded=1;fillColor=#e1d5e7;strokeColor=#9673a6;align=left;verticalAlign=top;spacing=6;sketch=1;curveFitting=1;jiggle=2;" parent="1" vertex="1">
          <mxGeometry x="40" y="550" width="700" height="120" as="geometry" />
        </mxCell>
        <mxCell id="pipe1" value="Deploy Hub Infra (Terraform)" style="edgeStyle=orthogonalEdgeStyle;rounded=1;strokeColor=#99004D;sketch=1;curveFitting=1;jiggle=2;" parent="1" source="cicd" target="connectivity" edge="1">
          <mxGeometry x="0.069" y="-25" relative="1" as="geometry">
            <Array as="points">
              <mxPoint x="290" y="505" />
              <mxPoint x="190" y="505" />
            </Array>
            <mxPoint as="offset" />
          </mxGeometry>
        </mxCell>
        <mxCell id="pipe2" value="Deploy Dev Env (Terraform)" style="edgeStyle=orthogonalEdgeStyle;rounded=1;strokeColor=#99004D;sketch=1;curveFitting=1;jiggle=2;" parent="1" source="cicd" target="dev" edge="1">
          <mxGeometry relative="1" as="geometry" />
        </mxCell>
        <mxCell id="pipe3" value="Deploy QA Env (Terraform)" style="edgeStyle=orthogonalEdgeStyle;rounded=1;strokeColor=#660033;sketch=1;curveFitting=1;jiggle=2;" parent="1" source="cicd" target="qa" edge="1">
          <mxGeometry relative="1" as="geometry">
            <Array as="points">
              <mxPoint x="560" y="505" />
              <mxPoint x="710" y="505" />
            </Array>
          </mxGeometry>
        </mxCell>
        <mxCell id="pipe4" value="Deploy Prod Env (Terraform + Approval)" style="edgeStyle=orthogonalEdgeStyle;rounded=1;strokeColor=#99004D;entryX=0.886;entryY=0.991;entryDx=0;entryDy=0;entryPerimeter=0;sketch=1;curveFitting=1;jiggle=2;" parent="1" source="cicd" target="prod" edge="1">
          <mxGeometry relative="1" as="geometry">
            <Array as="points">
              <mxPoint x="1150" y="640" />
            </Array>
          </mxGeometry>
        </mxCell>
        <mxCell id="monitor" value="Azure Monitor / Log Analytics&#xa;Centralized diagnostics from all subscriptions" style="rounded=1;fillColor=#cfe2f3;strokeColor=#3d85c6;sketch=1;curveFitting=1;jiggle=2;" parent="1" vertex="1">
          <mxGeometry x="780" y="520" width="300" height="100" as="geometry" />
        </mxCell>
        <mxCell id="log1" value="Diagnostics" style="edgeStyle=orthogonalEdgeStyle;dashed=1;strokeColor=#999999;strokeWidth=2;sketch=1;curveFitting=1;jiggle=2;" parent="1" target="monitor" edge="1">
          <mxGeometry relative="1" as="geometry">
            <mxPoint x="340" y="410" as="sourcePoint" />
            <mxPoint x="900" y="520" as="targetPoint" />
            <Array as="points">
              <mxPoint x="340" y="420" />
              <mxPoint x="900" y="420" />
              <mxPoint x="900" y="510" />
              <mxPoint x="875" y="510" />
              <mxPoint x="875" y="518" />
              <mxPoint x="870" y="518" />
            </Array>
          </mxGeometry>
        </mxCell>
        <mxCell id="log2" value="Diagnostics" style="edgeStyle=orthogonalEdgeStyle;dashed=1;strokeColor=#999999;strokeWidth=2;sketch=1;curveFitting=1;jiggle=2;" parent="1" source="dev" target="monitor" edge="1">
          <mxGeometry relative="1" as="geometry">
            <Array as="points">
              <mxPoint x="1020" y="385" />
            </Array>
          </mxGeometry>
        </mxCell>
        <mxCell id="log3" value="Diagnostics" style="edgeStyle=orthogonalEdgeStyle;dashed=1;strokeColor=#999999;strokeWidth=2;sketch=1;curveFitting=1;jiggle=2;" parent="1" source="qa" target="monitor" edge="1">
          <mxGeometry relative="1" as="geometry">
            <Array as="points">
              <mxPoint x="740" y="490" />
              <mxPoint x="930" y="490" />
            </Array>
          </mxGeometry>
        </mxCell>
        <mxCell id="log4" value="Diagnostics" style="edgeStyle=orthogonalEdgeStyle;dashed=1;strokeColor=#999999;strokeWidth=2;entryX=0.608;entryY=0;entryDx=0;entryDy=0;entryPerimeter=0;exitX=0.75;exitY=1;exitDx=0;exitDy=0;sketch=1;curveFitting=1;jiggle=2;" parent="1" source="prod" target="monitor" edge="1">
          <mxGeometry relative="1" as="geometry" />
        </mxCell>
        <mxCell id="PxDN6OpVSuFVvjXr5Y2t-1" value="&lt;font style=&quot;font-size: 17px;&quot;&gt;&lt;b&gt;Hub&lt;/b&gt;&lt;/font&gt;" style="text;html=1;whiteSpace=wrap;strokeColor=none;fillColor=none;align=center;verticalAlign=middle;rounded=0;fontFamily=Architects Daughter;fontSource=https%3A%2F%2Ffonts.googleapis.com%2Fcss%3Ffamily%3DArchitects%2BDaughter;" vertex="1" parent="1">
          <mxGeometry x="100" y="400" width="110" height="30" as="geometry" />
        </mxCell>
        <mxCell id="PxDN6OpVSuFVvjXr5Y2t-2" value="&lt;font style=&quot;font-size: 17px;&quot;&gt;&lt;b&gt;Spoke&lt;/b&gt;&lt;/font&gt;" style="text;html=1;whiteSpace=wrap;strokeColor=none;fillColor=none;align=center;verticalAlign=middle;rounded=0;fontFamily=Architects Daughter;fontSource=https%3A%2F%2Ffonts.googleapis.com%2Fcss%3Ffamily%3DArchitects%2BDaughter;" vertex="1" parent="1">
          <mxGeometry x="490" y="420" width="90" height="30" as="geometry" />
        </mxCell>
        <mxCell id="PxDN6OpVSuFVvjXr5Y2t-3" value="&lt;font style=&quot;font-size: 17px;&quot;&gt;&lt;b&gt;Spoke&lt;/b&gt;&lt;/font&gt;" style="text;html=1;whiteSpace=wrap;strokeColor=none;fillColor=none;align=center;verticalAlign=middle;rounded=0;fontFamily=Architects Daughter;fontSource=https%3A%2F%2Ffonts.googleapis.com%2Fcss%3Ffamily%3DArchitects%2BDaughter;" vertex="1" parent="1">
          <mxGeometry x="720" y="420" width="90" height="30" as="geometry" />
        </mxCell>
        <mxCell id="PxDN6OpVSuFVvjXr5Y2t-4" value="&lt;font style=&quot;font-size: 17px;&quot;&gt;&lt;b&gt;Spoke&lt;/b&gt;&lt;/font&gt;" style="text;html=1;whiteSpace=wrap;strokeColor=none;fillColor=none;align=center;verticalAlign=middle;rounded=0;fontFamily=Architects Daughter;fontSource=https%3A%2F%2Ffonts.googleapis.com%2Fcss%3Ffamily%3DArchitects%2BDaughter;" vertex="1" parent="1">
          <mxGeometry x="1080" y="430" width="90" height="30" as="geometry" />
        </mxCell>
      </root>
    </mxGraphModel>
  </diagram>
</mxfile>
